<svg xmlns="http://www.w3.org/2000/svg" xmlns:xlink="http://www.w3.org/1999/xlink" xmlns:lucid="lucid" width="1760" height="1360"><g transform="translate(0 0)" lucid:page-tab-id="0_0"><path d="M453.15 62.17c0-4.42 3.58-8 8-8h836.75c4.4 0 8 3.58 8 8v52.8c0 4.43-3.6 8-8 8H461.15c-4.42 0-8-3.57-8-8z" stroke="#000" stroke-opacity="0" stroke-width="2" fill="#fff" fill-opacity="0"/><use xlink:href="#a" transform="matrix(1,0,0,1,457.1465527853429,58.17094531161557) translate(279.33283950617295 41.43555555555553)"/><use xlink:href="#b" transform="matrix(1,0,0,1,457.1465527853429,58.17094531161557) translate(470.2846913580247 41.43555555555553)"/><path d="M378.84 324.1c0-4.4 3.58-8 8-8H808.7c4.42 0 8 3.6 8 8v152c0 4.42-3.58 8-8 8H386.84c-4.42 0-8-3.58-8-8z" fill="#fff"/><path d="M378.84 388.1v33H816.7v-33M378.84 452.1v24c0 4.42 3.58 8 8 8H808.7c4.42 0 8-3.58 8-8v-24" fill="#e6e6e6"/><path d="M378.84 356.1v-32c0-4.4 3.58-8 8-8H808.7c4.42 0 8 3.6 8 8v32" fill="#e2e8ac"/><path d="M378.84 324.1c0-4.4 3.58-8 8-8H808.7c4.42 0 8 3.6 8 8v152c0 4.42-3.58 8-8 8H386.84c-4.42 0-8-3.58-8-8zM378.84 356.1H816.7M453.8 356.1v128M664.54 356.1v128" stroke="#333" fill="none"/><use xlink:href="#c" transform="matrix(1,0,0,1,388.8424098647232,316.10474977453924) translate(190.05 23.6)"/><use xlink:href="#d" transform="matrix(1,0,0,1,383.8424098647232,358.60474977453924) translate(20.5 17.1)"/><use xlink:href="#e" transform="matrix(1,0,0,1,458.8048982377673,358.60474977453924) translate(55.55 17.1)"/><use xlink:href="#f" transform="matrix(1,0,0,1,669.5372877642707,358.60474977453924) translate(41.55 17.1)"/><use xlink:href="#g" transform="matrix(1,0,0,1,458.8048982377673,390.60474977453924) translate(59.05 17.1)"/><use xlink:href="#f" transform="matrix(1,0,0,1,669.5372877642707,390.60474977453924) translate(41.55 17.1)"/><use xlink:href="#h" transform="matrix(1,0,0,1,458.8048982377673,422.60474977453924) translate(58.575 17.1)"/><use xlink:href="#f" transform="matrix(1,0,0,1,669.5372877642707,422.60474977453924) translate(41.55 17.1)"/><use xlink:href="#i" transform="matrix(1,0,0,1,383.8424098647232,454.60474977453924) translate(5.524999999999999 17.1)"/><use xlink:href="#j" transform="matrix(1,0,0,1,458.8048982377673,454.60474977453924) translate(62.05 17.1)"/><use xlink:href="#f" transform="matrix(1,0,0,1,669.5372877642707,454.60474977453924) translate(41.55 17.1)"/><path d="M956.8 408.25c0-4.4 3.57-8 8-8h421.85c4.42 0 8 3.6 8 8v184c0 4.42-3.58 8-8 8H964.8c-4.43 0-8-3.58-8-8z" fill="#fff"/><path d="M956.8 472.25v33h437.85v-33M956.8 536.25v33h437.85v-33" fill="#e6e6e6"/><path d="M956.8 440.25v-32c0-4.4 3.57-8 8-8h421.85c4.42 0 8 3.6 8 8v32" fill="#e2e8ac"/><path d="M956.8 408.25c0-4.4 3.57-8 8-8h421.85c4.42 0 8 3.6 8 8v184c0 4.42-3.58 8-8 8H964.8c-4.43 0-8-3.58-8-8zM956.8 440.25h437.85M1031.75 440.25v160M1242.5 440.25v160" stroke="#333" fill="none"/><use xlink:href="#k" transform="matrix(1,0,0,1,966.7916365859252,400.2547962821844) translate(181.05 23.6)"/><use xlink:href="#d" transform="matrix(1,0,0,1,961.7916365859252,442.7547962821844) translate(20.5 17.1)"/><use xlink:href="#l" transform="matrix(1,0,0,1,1036.7541249589692,442.7547962821844) translate(64.075 17.1)"/><use xlink:href="#m" transform="matrix(1,0,0,1,1247.4865144854725,442.7547962821844) translate(44.05 17.1)"/><use xlink:href="#n" transform="matrix(1,0,0,1,1036.7541249589692,474.7547962821844) translate(86.55 17.1)"/><use xlink:href="#f" transform="matrix(1,0,0,1,1247.4865144854725,474.7547962821844) translate(41.55 17.1)"/><use xlink:href="#o" transform="matrix(1,0,0,1,1036.7541249589692,506.7547962821844) translate(59.05 17.1)"/><use xlink:href="#f" transform="matrix(1,0,0,1,1247.4865144854725,506.7547962821844) translate(41.55 17.1)"/><use xlink:href="#p" transform="matrix(1,0,0,1,1036.7541249589692,538.7547962821843) translate(83 17.1)"/><use xlink:href="#f" transform="matrix(1,0,0,1,1247.4865144854725,538.7547962821843) translate(41.55 17.1)"/><use xlink:href="#q" transform="matrix(1,0,0,1,961.7916365859252,570.7547962821843) translate(15.024999999999999 17.1)"/><use xlink:href="#e" transform="matrix(1,0,0,1,1036.7541249589692,570.7547962821843) translate(55.55 17.1)"/><use xlink:href="#f" transform="matrix(1,0,0,1,1247.4865144854725,570.7547962821843) translate(41.55 17.1)"/><path d="M936.3 584.45h-37.55c-6.63 0-12-5.38-12-12v-188.4c0-6.64-5.38-12-12-12H836.6" stroke="#333" fill="none"/><path d="M936.3 574.45v20M956.3 584.45h-20" stroke="#333" fill="#fff"/><path d="M817.42 362.04l20 10-20 10" stroke="#333" fill="#fff" fill-opacity="0"/><path d="M817.42 372.04h20" stroke="#333" fill="#fff"/><defs><path fill="#282c33" d="M146-102V0H94v-102L6-248h54l60 105 60-105h54" id="r"/><path fill="#282c33" d="M24 0v-248h195v40H76v63h132v40H76v65h150V0H24" id="s"/><path fill="#282c33" d="M67-125c0 53 21 87 73 88 37 1 54-22 65-47l45 17C233-25 199 4 140 4 58 4 20-42 15-125 8-235 124-281 211-232c18 10 29 29 36 50l-46 12c-8-25-30-41-62-41-52 0-71 34-72 86" id="t"/><path fill="#282c33" d="M24 0v-248h52V0H24" id="u"/><path fill="#282c33" d="M24-248c93 1 206-16 204 79-1 75-69 88-152 82V0H24v-248zm52 121c47 0 100 7 100-41 0-47-54-39-100-39v80" id="v"/><g id="a"><use transform="matrix(0.13456790123456783,0,0,0.13456790123456783,0,0)" xlink:href="#r"/><use transform="matrix(0.13456790123456783,0,0,0.13456790123456783,32.296296296296276,0)" xlink:href="#s"/><use transform="matrix(0.13456790123456783,0,0,0.13456790123456783,64.59259259259255,0)" xlink:href="#t"/><use transform="matrix(0.13456790123456783,0,0,0.13456790123456783,99.44567901234562,0)" xlink:href="#u"/><use transform="matrix(0.13456790123456783,0,0,0.13456790123456783,112.9024691358024,0)" xlink:href="#v"/><use transform="matrix(0.13456790123456783,0,0,0.13456790123456783,145.1987654320987,0)" xlink:href="#s"/></g><path fill="#282c33" d="M240-174c0 40-23 61-54 70L253 0h-59l-57-94H76V0H24v-248c93 4 217-23 216 74zM76-134c48-2 112 12 112-38 0-48-66-32-112-35v73" id="w"/><path fill="#282c33" d="M24-248c120-7 223 5 221 122C244-46 201 0 124 0H24v-248zM76-40c74 7 117-18 117-86 0-67-45-88-117-82v168" id="x"/><g id="b"><use transform="matrix(0.13456790123456783,0,0,0.13456790123456783,0,0)" xlink:href="#s"/><use transform="matrix(0.13456790123456783,0,0,0.13456790123456783,32.296296296296276,0)" xlink:href="#w"/><use transform="matrix(0.13456790123456783,0,0,0.13456790123456783,67.14938271604935,0)" xlink:href="#x"/></g><path fill="#333" d="M232-93c-1 65-40 97-104 97C67 4 28-28 28-90v-158h33c8 89-33 224 67 224 102 0 64-133 71-224h33v155" id="y"/><path fill="#333" d="M135-143c-3-34-86-38-87 0 15 53 115 12 119 90S17 21 10-45l28-5c4 36 97 45 98 0-10-56-113-15-118-90-4-57 82-63 122-42 12 7 21 19 24 35" id="z"/><path fill="#333" d="M100-194c63 0 86 42 84 106H49c0 40 14 67 53 68 26 1 43-12 49-29l28 8c-11 28-37 45-77 45C44 4 14-33 15-96c1-61 26-98 85-98zm52 81c6-60-76-77-97-28-3 7-6 17-6 28h103" id="A"/><path fill="#333" d="M114-163C36-179 61-72 57 0H25l-1-190h30c1 12-1 29 2 39 6-27 23-49 58-41v29" id="B"/><g id="c"><use transform="matrix(0.05,0,0,0.05,0,0)" xlink:href="#y"/><use transform="matrix(0.05,0,0,0.05,12.950000000000001,0)" xlink:href="#z"/><use transform="matrix(0.05,0,0,0.05,21.950000000000003,0)" xlink:href="#A"/><use transform="matrix(0.05,0,0,0.05,31.950000000000003,0)" xlink:href="#B"/></g><path fill="#333" d="M30-248c87 1 191-15 191 75 0 78-77 80-158 76V0H30v-248zm33 125c57 0 124 11 124-50 0-59-68-47-124-48v98" id="C"/><path fill="#333" d="M194 0L95-120 63-95V0H30v-248h33v124l119-124h40L117-140 236 0h-42" id="D"/><g id="d"><use transform="matrix(0.05,0,0,0.05,0,0)" xlink:href="#C"/><use transform="matrix(0.05,0,0,0.05,12,0)" xlink:href="#D"/></g><path fill="#333" d="M84 4C-5 8 30-112 23-190h32v120c0 31 7 50 39 49 72-2 45-101 50-169h31l1 190h-30c-1-10 1-25-2-33-11 22-28 36-60 37" id="E"/><path fill="#333" d="M-5 72V49h209v23H-5" id="F"/><path fill="#333" d="M117-194c89-4 53 116 60 194h-32v-121c0-31-8-49-39-48C34-167 62-67 57 0H25l-1-190h30c1 10-1 24 2 32 11-22 29-35 61-36" id="G"/><path fill="#333" d="M141-36C126-15 110 5 73 4 37 3 15-17 15-53c-1-64 63-63 125-63 3-35-9-54-41-54-24 1-41 7-42 31l-33-3c5-37 33-52 76-52 45 0 72 20 72 64v82c-1 20 7 32 28 27v20c-31 9-61-2-59-35zM48-53c0 20 12 33 32 33 41-3 63-29 60-74-43 2-92-5-92 41" id="H"/><path fill="#333" d="M210-169c-67 3-38 105-44 169h-31v-121c0-29-5-50-35-48C34-165 62-65 56 0H25l-1-190h30c1 10-1 24 2 32 10-44 99-50 107 0 11-21 27-35 58-36 85-2 47 119 55 194h-31v-121c0-29-5-49-35-48" id="I"/><g id="e"><use transform="matrix(0.05,0,0,0.05,0,0)" xlink:href="#E"/><use transform="matrix(0.05,0,0,0.05,10,0)" xlink:href="#z"/><use transform="matrix(0.05,0,0,0.05,19,0)" xlink:href="#A"/><use transform="matrix(0.05,0,0,0.05,29,0)" xlink:href="#B"/><use transform="matrix(0.05,0,0,0.05,34.95,0)" xlink:href="#F"/><use transform="matrix(0.05,0,0,0.05,44.95,0)" xlink:href="#G"/><use transform="matrix(0.05,0,0,0.05,54.95,0)" xlink:href="#H"/><use transform="matrix(0.05,0,0,0.05,64.95,0)" xlink:href="#I"/><use transform="matrix(0.05,0,0,0.05,79.9,0)" xlink:href="#A"/></g><path fill="#333" d="M108 0H70L1-190h34L89-25l56-165h34" id="J"/><path fill="#333" d="M96-169c-40 0-48 33-48 73s9 75 48 75c24 0 41-14 43-38l32 2c-6 37-31 61-74 61-59 0-76-41-82-99-10-93 101-131 147-64 4 7 5 14 7 22l-32 3c-4-21-16-35-41-35" id="K"/><path fill="#333" d="M106-169C34-169 62-67 57 0H25v-261h32l-1 103c12-21 28-36 61-36 89 0 53 116 60 194h-32v-121c2-32-8-49-39-48" id="L"/><g id="f"><use transform="matrix(0.05,0,0,0.05,0,0)" xlink:href="#J"/><use transform="matrix(0.05,0,0,0.05,9,0)" xlink:href="#H"/><use transform="matrix(0.05,0,0,0.05,19,0)" xlink:href="#B"/><use transform="matrix(0.05,0,0,0.05,24.95,0)" xlink:href="#K"/><use transform="matrix(0.05,0,0,0.05,33.95,0)" xlink:href="#L"/><use transform="matrix(0.05,0,0,0.05,43.95,0)" xlink:href="#H"/><use transform="matrix(0.05,0,0,0.05,53.95,0)" xlink:href="#B"/></g><path fill="#333" d="M24 0v-261h32V0H24" id="M"/><path fill="#333" d="M59-47c-2 24 18 29 38 22v24C64 9 27 4 27-40v-127H5v-23h24l9-43h21v43h35v23H59v120" id="N"/><g id="g"><use transform="matrix(0.05,0,0,0.05,0,0)" xlink:href="#M"/><use transform="matrix(0.05,0,0,0.05,3.95,0)" xlink:href="#H"/><use transform="matrix(0.05,0,0,0.05,13.949999999999998,0)" xlink:href="#z"/><use transform="matrix(0.05,0,0,0.05,22.95,0)" xlink:href="#N"/><use transform="matrix(0.05,0,0,0.05,27.950000000000003,0)" xlink:href="#F"/><use transform="matrix(0.05,0,0,0.05,37.95,0)" xlink:href="#G"/><use transform="matrix(0.05,0,0,0.05,47.95,0)" xlink:href="#H"/><use transform="matrix(0.05,0,0,0.05,57.95,0)" xlink:href="#I"/><use transform="matrix(0.05,0,0,0.05,72.9,0)" xlink:href="#A"/></g><path fill="#333" d="M101-234c-31-9-42 10-38 44h38v23H63V0H32v-167H5v-23h27c-7-52 17-82 69-68v24" id="O"/><path fill="#333" d="M24-231v-30h32v30H24zM24 0v-190h32V0H24" id="P"/><g id="h"><use transform="matrix(0.05,0,0,0.05,0,0)" xlink:href="#O"/><use transform="matrix(0.05,0,0,0.05,5,0)" xlink:href="#P"/><use transform="matrix(0.05,0,0,0.05,8.95,0)" xlink:href="#B"/><use transform="matrix(0.05,0,0,0.05,14.899999999999999,0)" xlink:href="#z"/><use transform="matrix(0.05,0,0,0.05,23.9,0)" xlink:href="#N"/><use transform="matrix(0.05,0,0,0.05,28.899999999999995,0)" xlink:href="#F"/><use transform="matrix(0.05,0,0,0.05,38.9,0)" xlink:href="#G"/><use transform="matrix(0.05,0,0,0.05,48.9,0)" xlink:href="#H"/><use transform="matrix(0.05,0,0,0.05,58.900000000000006,0)" xlink:href="#I"/><use transform="matrix(0.05,0,0,0.05,73.85,0)" xlink:href="#A"/></g><path fill="#333" d="M145-31C134-9 116 4 85 4 32 4 16-35 15-94c0-59 17-99 70-100 32-1 48 14 60 33 0-11-1-24 2-32h30l-1 268h-32zM93-21c41 0 51-33 51-76s-8-73-50-73c-40 0-46 35-46 75s5 74 45 74" id="Q"/><g id="i"><use transform="matrix(0.05,0,0,0.05,0,0)" xlink:href="#E"/><use transform="matrix(0.05,0,0,0.05,10,0)" xlink:href="#G"/><use transform="matrix(0.05,0,0,0.05,20,0)" xlink:href="#P"/><use transform="matrix(0.05,0,0,0.05,23.95,0)" xlink:href="#Q"/><use transform="matrix(0.05,0,0,0.05,33.95,0)" xlink:href="#E"/><use transform="matrix(0.05,0,0,0.05,43.95,0)" xlink:href="#A"/></g><path fill="#333" d="M115-194c55 1 70 41 70 98S169 2 115 4C84 4 66-9 55-30l1 105H24l-1-265h31l2 30c10-21 28-34 59-34zm-8 174c40 0 45-34 45-75s-6-73-45-74c-42 0-51 32-51 76 0 43 10 73 51 73" id="R"/><path fill="#333" d="M206 0h-36l-40-164L89 0H53L-1-190h32L70-26l43-164h34l41 164 42-164h31" id="S"/><path fill="#333" d="M100-194c62-1 85 37 85 99 1 63-27 99-86 99S16-35 15-95c0-66 28-99 85-99zM99-20c44 1 53-31 53-75 0-43-8-75-51-75s-53 32-53 75 10 74 51 75" id="T"/><path fill="#333" d="M85-194c31 0 48 13 60 33l-1-100h32l1 261h-30c-2-10 0-23-3-31C134-8 116 4 85 4 32 4 16-35 15-94c0-66 23-100 70-100zm9 24c-40 0-46 34-46 75 0 40 6 74 45 74 42 0 51-32 51-76 0-42-9-74-50-73" id="U"/><g id="j"><use transform="matrix(0.05,0,0,0.05,0,0)" xlink:href="#R"/><use transform="matrix(0.05,0,0,0.05,10,0)" xlink:href="#H"/><use transform="matrix(0.05,0,0,0.05,20,0)" xlink:href="#z"/><use transform="matrix(0.05,0,0,0.05,29,0)" xlink:href="#z"/><use transform="matrix(0.05,0,0,0.05,38,0)" xlink:href="#S"/><use transform="matrix(0.05,0,0,0.05,50.95,0)" xlink:href="#T"/><use transform="matrix(0.05,0,0,0.05,60.95,0)" xlink:href="#B"/><use transform="matrix(0.05,0,0,0.05,66.9,0)" xlink:href="#U"/></g><path fill="#333" d="M233-177c-1 41-23 64-60 70L243 0h-38l-65-103H63V0H30v-248c88 3 205-21 203 71zM63-129c60-2 137 13 137-47 0-61-80-42-137-45v92" id="V"/><g id="k"><use transform="matrix(0.05,0,0,0.05,0,0)" xlink:href="#V"/><use transform="matrix(0.05,0,0,0.05,12.950000000000001,0)" xlink:href="#A"/><use transform="matrix(0.05,0,0,0.05,22.950000000000003,0)" xlink:href="#K"/><use transform="matrix(0.05,0,0,0.05,31.950000000000003,0)" xlink:href="#P"/><use transform="matrix(0.05,0,0,0.05,35.900000000000006,0)" xlink:href="#R"/><use transform="matrix(0.05,0,0,0.05,45.900000000000006,0)" xlink:href="#A"/></g><g id="l"><use transform="matrix(0.05,0,0,0.05,0,0)" xlink:href="#B"/><use transform="matrix(0.05,0,0,0.05,5.95,0)" xlink:href="#A"/><use transform="matrix(0.05,0,0,0.05,15.949999999999998,0)" xlink:href="#K"/><use transform="matrix(0.05,0,0,0.05,24.95,0)" xlink:href="#P"/><use transform="matrix(0.05,0,0,0.05,28.899999999999995,0)" xlink:href="#R"/><use transform="matrix(0.05,0,0,0.05,38.9,0)" xlink:href="#A"/><use transform="matrix(0.05,0,0,0.05,48.9,0)" xlink:href="#F"/><use transform="matrix(0.05,0,0,0.05,58.900000000000006,0)" xlink:href="#P"/><use transform="matrix(0.05,0,0,0.05,62.85,0)" xlink:href="#U"/></g><path fill="#333" d="M177-190C167-65 218 103 67 71c-23-6-38-20-44-43l32-5c15 47 100 32 89-28v-30C133-14 115 1 83 1 29 1 15-40 15-95c0-56 16-97 71-98 29-1 48 16 59 35 1-10 0-23 2-32h30zM94-22c36 0 50-32 50-73 0-42-14-75-50-75-39 0-46 34-46 75s6 73 46 73" id="W"/><g id="m"><use transform="matrix(0.05,0,0,0.05,0,0)" xlink:href="#P"/><use transform="matrix(0.05,0,0,0.05,3.95,0)" xlink:href="#G"/><use transform="matrix(0.05,0,0,0.05,13.949999999999998,0)" xlink:href="#N"/><use transform="matrix(0.05,0,0,0.05,18.95,0)" xlink:href="#A"/><use transform="matrix(0.05,0,0,0.05,28.950000000000003,0)" xlink:href="#W"/><use transform="matrix(0.05,0,0,0.05,38.95,0)" xlink:href="#A"/><use transform="matrix(0.05,0,0,0.05,48.95,0)" xlink:href="#B"/></g><g id="n"><use transform="matrix(0.05,0,0,0.05,0,0)" xlink:href="#N"/><use transform="matrix(0.05,0,0,0.05,5,0)" xlink:href="#P"/><use transform="matrix(0.05,0,0,0.05,8.95,0)" xlink:href="#N"/><use transform="matrix(0.05,0,0,0.05,13.949999999999998,0)" xlink:href="#M"/><use transform="matrix(0.05,0,0,0.05,17.9,0)" xlink:href="#A"/></g><g id="o"><use transform="matrix(0.05,0,0,0.05,0,0)" xlink:href="#K"/><use transform="matrix(0.05,0,0,0.05,9,0)" xlink:href="#T"/><use transform="matrix(0.05,0,0,0.05,19,0)" xlink:href="#I"/><use transform="matrix(0.05,0,0,0.05,33.95,0)" xlink:href="#I"/><use transform="matrix(0.05,0,0,0.05,48.900000000000006,0)" xlink:href="#A"/><use transform="matrix(0.05,0,0,0.05,58.900000000000006,0)" xlink:href="#G"/><use transform="matrix(0.05,0,0,0.05,68.9,0)" xlink:href="#N"/><use transform="matrix(0.05,0,0,0.05,73.9,0)" xlink:href="#z"/></g><g id="p"><use transform="matrix(0.05,0,0,0.05,0,0)" xlink:href="#R"/><use transform="matrix(0.05,0,0,0.05,10,0)" xlink:href="#H"/><use transform="matrix(0.05,0,0,0.05,20,0)" xlink:href="#N"/><use transform="matrix(0.05,0,0,0.05,25,0)" xlink:href="#L"/></g><path fill="#333" d="M63-220v92h138v28H63V0H30v-248h175v28H63" id="X"/><g id="q"><use transform="matrix(0.05,0,0,0.05,0,0)" xlink:href="#C"/><use transform="matrix(0.05,0,0,0.05,12,0)" xlink:href="#X"/><use transform="matrix(0.05,0,0,0.05,22.950000000000003,0)" xlink:href="#D"/></g></defs></g></svg>